<svg xmlns="http://www.w3.org/2000/svg" width="592" height="614.443" viewBox="0 0 592 614.443">
  <g id="Group_18" data-name="Group 18" transform="translate(4095.5 -909)">
    <g id="Mask_Group_2" data-name="Mask Group 2" transform="translate(-3227.051 238.407)">
      <g id="egld" transform="translate(-868.449 670.593)">
        <rect id="Rectangle_5" data-name="Rectangle 5" width="592" height="592" rx="296"/>
        <path id="Path_20" data-name="Path 20" d="M245.541,248.73l84.49-44.39-14.19-26.74-77.407,30.687a8.354,8.354,0,0,1-6.2,0L154.833,177.6,140.6,204.427l84.49,44.389L140.6,293.2l14.233,26.827,77.406-30.922a8.355,8.355,0,0,1,6.2,0l77.407,30.772,14.233-26.827Z" transform="translate(185 -76.645)" fill="#23f7dd"/>
      </g>
    </g>
    <g id="icon" transform="translate(-4084.55 1042.237)">
      <g id="Icon-2" data-name="Icon" transform="translate(-0.022 73.336) rotate(-11)">
        <path id="shadow" d="M228.338,395.082a18.353,18.353,0,0,1-7.219-1.516,16.041,16.041,0,0,1-5.645-4.218,20.789,20.789,0,0,1-3.816-6.825,33.93,33.93,0,0,1-1.7-9.326q-.1-1.986-.034-4.115c-5.158.772-9.694,1.232-13.356,1.433-24.233,1.334-88.417-.7-138.009-44.973S-6.137,199.115,2.177,157.635,24.9,77.476,67.089,39.61,179.741.021,179.741.021s30.588,4.954,48.994,24.96a70.559,70.559,0,0,1,18.2,44.26s.318,37.01-35.474,37.678-31.721-10.586-31.721-24.386,5.808-16.829,16.82-21.584S185.77,35.7,164.124,43.6s-36.586,13.938-54.141,42.829-29.72,58.888-22.515,101.532S102.331,236.493,122,253.066c12.519,10.55,39.023,21.981,59.79,20.137,5.8-17.08,14.75-35.8,20.332-53.491-6.135-8.107-12.973-16.222-11.165-31.753.012-.1.024-.2.036-.3L176.77,185.22s48.972-93.369,75.776-88.773c9.839,1.687,16.691,16.573,21.423,34.742,19.742,3.183,45.924,21.91,61.141,45.968q1.262-.384,2.442-.658a24.076,24.076,0,0,1,5.95-.7,12.836,12.836,0,0,1,4.937,1.024,11.135,11.135,0,0,1,3.837,2.887,17.694,17.694,0,0,1,2.822,4.6,32.866,32.866,0,0,1,1.9,6.07,58.8,58.8,0,0,1,1.071,7.268c.817,9.183.2,21.209-1.822,35.745-.8,5.713-1.815,11.831-3.029,18.185-.971,5.084-2.068,10.329-3.261,15.591-1.816,8.01-3.307,13.635-3.614,14.778l-9.257-4.126c-5.035,11.252-12.7,22.851-24.667,39.076-8.746,11.857-20.452,21.3-33.217,28.74-5.889,14.941-12.384,28.2-22.263,36.471a74.079,74.079,0,0,1-10.415,7.376,46.472,46.472,0,0,1-9.626,4.278,28.417,28.417,0,0,1-8.2,1.314Z" transform="translate(0 0)" fill="rgba(199,206,17,0.4)"/>
        <path id="Path_1" data-name="Path 1" d="M179.672,81.356c0,13.338,3.912,21.994,33.1,18.611s26.613-36.328,26.613-36.328,1.687-20.155-15.955-39.492S176.465.021,176.465.021,108.928,1.685,68.489,38.285s-58.433,75.657-66.4,115.749,6.507,119.5,54.041,162.291,108.352,48.909,131.579,47.62,91.154-13.864,119.183-52.184,31.433-49.939,33.606-95.218-54.618-90.816-81.656-84.085c-44.011,10.956-63.6,23.352-67.176,54.318s33.1,24.063,17.711,64.951-88.307,16.934-101.909-2.937-22.007-23.384-28.913-64.6,4.755-70.211,21.581-98.136,40.552-44,61.157-51.476,51.444,20.291,40.888,24.888S179.672,68.018,179.672,81.356Z" transform="translate(3.255 3.07)" fill="#f79219"/>
        <path id="green_up" data-name="green up" d="M22.705,213.752c-11-29.636,17.948-87.725,5.942-121.115L0,93.272S28.358.569,53.889,0s48.235,91.005,48.235,91.005l-29.143.646c-14.931,38.4,12.241,90.587-.349,120.991-6.637,16.028-16.2,24.18-25.557,24.388S28.55,229.5,22.705,213.752Z" transform="translate(198.982 91.175) rotate(11)" fill="#0fcb50"/>
        <path id="red_up" data-name="red up" d="M18.673,219.23c-9.9-30.008,20.157-90.1,9.382-123.923L-.016,96.679S30.481,1.225,55.5,0s44.557,91.785,44.557,91.785L71.5,93.183C55.747,132.8,80.82,185.449,67.6,216.838c-6.97,16.547-16.571,25.12-25.745,25.568S23.934,235.179,18.673,219.23Z" transform="matrix(0.891, 0.454, -0.454, 0.891, 295.311, 154.089)" fill="#ef5d34"/>
      </g>
    </g>
  </g>
</svg>
